<svg width="720" height="460" viewBox="0 0 720 460" fill="none" xmlns="http://www.w3.org/2000/svg">
  <rect width="720" height="460" rx="28" fill="#EBDED4"/>
  <path d="M0 305C86 249 174 228 264 242C368 257 452 334 557 330C620 328 674 300 720 263V460H0V305Z" fill="#2D5A45"/>
  <circle cx="153" cy="106" r="82" fill="#F5F1EC"/>
  <circle cx="590" cy="102" r="94" fill="#D6C0B0"/>
  <path d="M138 372C153 278 205 214 278 203C355 191 420 245 443 372H138Z" fill="#F5F1EC"/>
  <circle cx="294" cy="166" r="66" fill="#D49B84"/>
  <path d="M229 160C242 112 280 82 326 86C378 91 416 132 414 187C370 184 333 164 303 127C281 151 257 162 229 160Z" fill="#173B2A"/>
  <path d="M400 380C414 291 463 229 531 216C603 203 664 252 690 380H400Z" fill="#E6D3C3"/>
  <circle cx="552" cy="179" r="60" fill="#C9967F"/>
  <path d="M500 170C511 124 545 96 588 100C636 105 668 144 665 193C626 191 591 173 563 138C546 158 525 169 500 170Z" fill="#1D3F2E"/>
  <path d="M351 254C383 226 422 226 454 254" stroke="#EBDED4" stroke-width="14" stroke-linecap="round"/>
  <path d="M365 286C391 263 423 263 449 286" stroke="#F5F1EC" stroke-width="10" stroke-linecap="round" opacity=".92"/>
  <rect x="337" y="87" width="46" height="238" rx="23" fill="#224D38"/>
  <circle cx="360" cy="69" r="23" fill="#224D38"/>
  <circle cx="360" cy="345" r="23" fill="#224D38"/>
</svg>
